<svg width="200" height="80" viewBox="0 0 200 80" fill="none" xmlns="http://www.w3.org/2000/svg">
<g clip-path="url(#clip0_1190_1201)">
<path d="M8.30867 28.1835H1.87368C1.33634 28.1835 0.90301 28.3273 0.573677 28.6149C0.418961 28.7369 0.29375 28.8917 0.207229 29.068C0.120709 29.2442 0.0750753 29.4375 0.0736771 29.6335L0.0736771 49.2345C0.0736771 49.7079 0.31201 50.0716 0.788677 50.3255C1.31658 50.5947 1.90431 50.7277 2.49768 50.7123C3.09084 50.7279 3.67846 50.5956 4.20668 50.3275C4.68268 50.0709 4.92068 49.7073 4.92068 49.2365V42.5795H7.99767C10.2977 42.5795 12.1467 41.9993 13.5447 40.8389C14.9427 39.6785 15.6427 37.8754 15.6447 35.4296V35.2739C15.6447 32.8274 14.9763 31.0343 13.6397 29.8944C12.303 28.7544 10.526 28.1842 8.30867 28.1835ZM10.7947 35.7976C10.7947 37.8526 9.86134 38.8798 7.99467 38.8791H4.92068V32.3758H7.99767C9.86434 32.3758 10.7977 33.403 10.7977 35.4574L10.7947 35.7976ZM29.5637 41.0363C32.0697 40.0716 33.323 37.9865 33.3237 34.781C33.3237 30.382 30.7753 28.1828 25.6787 28.1835H19.2467C19.0474 28.1771 18.8489 28.2121 18.6641 28.2864C18.4793 28.3607 18.3122 28.4726 18.1737 28.6149C18.0391 28.7486 17.9328 28.9075 17.8609 29.0824C17.7889 29.2573 17.7528 29.4446 17.7547 29.6335V49.2345C17.7547 49.7079 17.993 50.0716 18.4697 50.3255C19.0034 50.5788 19.5875 50.7103 20.1792 50.7103C20.7708 50.7103 21.355 50.5788 21.8887 50.3255C22.3647 50.069 22.6027 49.7053 22.6027 49.2345V41.8069H24.6527L28.9107 50.0051C29.222 50.6002 29.74 50.8978 30.4647 50.8978C31.1893 50.8978 31.878 50.6303 32.5307 50.0954C33.184 49.5618 33.5107 48.9971 33.5107 48.4014C33.5187 48.2046 33.4642 48.0103 33.3547 47.846L29.5637 41.0363ZM27.7637 37.4459C27.2857 37.887 26.5913 38.1078 25.6807 38.1085H22.6027V32.3758H25.6787C26.5907 32.3758 27.285 32.5967 27.7617 33.0384C28.2383 33.4801 28.4757 34.214 28.4737 35.2402C28.4737 36.2703 28.2363 37.0056 27.7617 37.4459H27.7637ZM43.2677 28.1835C40.9677 28.1835 39.124 28.7693 37.7367 29.941C36.3493 31.1126 35.6553 32.9514 35.6547 35.4574V43.6259C35.6547 46.1318 36.3487 47.9706 37.7367 49.1423C39.1247 50.3139 40.9683 50.8998 43.2677 50.8998C45.589 50.8998 47.4433 50.3139 48.8307 49.1423C50.218 47.9706 50.912 46.1318 50.9127 43.6259V35.4574C50.9127 32.9514 50.2187 31.1126 48.8307 29.941C47.4427 28.7693 45.5883 28.1835 43.2677 28.1835ZM46.0677 43.6259C46.0677 45.6809 45.1343 46.7081 43.2677 46.7074C41.4237 46.7074 40.502 45.6802 40.5027 43.6259V35.4574C40.5027 33.4077 41.4243 32.3805 43.2677 32.3758C45.1343 32.3758 46.0677 33.403 46.0677 35.4574V43.6259ZM67.4677 41.068C67.9537 42.0122 68.1973 43.0906 68.1987 44.3033C68.1987 46.4191 67.4837 48.0688 66.0537 49.2524C64.6237 50.4359 62.749 51.0257 60.4297 51.0217C58.4197 51.0217 56.669 50.6111 55.1777 49.7899C53.6863 48.9687 52.9403 48.043 52.9397 47.0129C52.9397 46.4376 53.152 45.8624 53.5767 45.2871C54.0013 44.7119 54.4933 44.4243 55.0527 44.4243C55.3633 44.4243 55.7103 44.5486 56.0937 44.7972C56.4699 45.0422 56.8236 45.3197 57.1507 45.6263C57.4713 45.9292 57.922 46.2052 58.5027 46.4545C59.0811 46.7033 59.7052 46.8306 60.3357 46.8284C61.1443 46.8284 61.8487 46.6585 62.4487 46.3186C63.0487 45.9788 63.3487 45.4703 63.3487 44.7932C63.3487 44.1168 63.012 43.5217 62.3387 43.008C61.5766 42.4446 60.749 41.9741 59.8737 41.6066C58.9097 41.186 57.941 40.7133 56.9677 40.1883C55.9762 39.6497 55.1293 38.8835 54.4977 37.9537C53.8237 36.9897 53.487 35.8396 53.4877 34.5033C53.4877 32.3213 54.2643 30.6924 55.8177 29.6167C57.371 28.5409 59.2473 28.002 61.4467 28C62.0124 28.0028 62.5775 28.036 63.1397 28.0992C63.8104 28.1773 64.4751 28.2992 65.1297 28.4642C65.863 28.6447 66.463 28.9356 66.9297 29.337C67.1491 29.513 67.326 29.7357 67.4471 29.9885C67.5683 30.2414 67.6306 30.5179 67.6297 30.7979C67.6297 31.3414 67.4587 31.9034 67.1167 32.484C66.7747 33.0645 66.3037 33.3571 65.7037 33.3617C65.455 33.3617 64.9263 33.1666 64.1177 32.7765C63.2845 32.3793 62.37 32.1783 61.4457 32.1894C60.4097 32.1894 59.6327 32.3696 59.1147 32.7299C58.5967 33.0903 58.338 33.5267 58.3387 34.0391C58.3387 34.5122 58.5807 34.9436 59.0687 35.3334C59.6184 35.7587 60.2322 36.0954 60.8877 36.3312C61.6994 36.648 62.4929 37.0089 63.2647 37.4122C64.0926 37.8349 64.8872 38.3189 65.6417 38.8603C66.367 39.3859 66.973 40.1218 67.4597 41.068H67.4677ZM84.0387 32.3758H79.7497V49.2246C79.7497 49.7007 79.5113 50.068 79.0347 50.3265C78.507 50.5963 77.9191 50.7291 77.3257 50.7123C76.659 50.7123 76.0893 50.583 75.6167 50.3245C75.144 50.066 74.9057 49.6993 74.9017 49.2246V32.3758H70.6137C70.1577 32.3758 69.8003 32.1712 69.5417 31.7619C69.283 31.3526 69.1533 30.8488 69.1527 30.2504C69.1388 29.7399 69.2679 29.2356 69.5257 28.7935C69.633 28.6025 69.7914 28.4445 69.9833 28.3369C70.1752 28.2293 70.3933 28.1762 70.6137 28.1835H84.0387C84.2588 28.1764 84.4767 28.2296 84.6685 28.3372C84.8602 28.4448 85.0184 28.6026 85.1257 28.7935C85.3827 29.2344 85.5118 29.7373 85.4986 30.2464C85.4986 30.8455 85.3693 31.3493 85.1106 31.758C84.852 32.1666 84.4947 32.3725 84.0387 32.3758ZM96.0956 29.5988C95.9296 29.0864 95.5517 28.6896 94.9616 28.4086C94.3183 28.1351 93.6256 27.994 92.9257 27.994C92.2257 27.994 91.533 28.1351 90.8896 28.4086C90.2997 28.6863 89.9217 29.0831 89.7557 29.5988L83.9737 48.4034C83.9416 48.5138 83.9208 48.6271 83.9117 48.7416C83.9117 49.2765 84.2483 49.7393 84.9217 50.1301C85.5555 50.5097 86.2812 50.7119 87.0217 50.7153C87.9117 50.7153 88.44 50.4177 88.6067 49.8227L89.6627 45.9705H96.2197L97.2737 49.8197C97.4383 50.4148 97.9663 50.7123 98.8577 50.7123C99.598 50.7084 100.324 50.5062 100.958 50.1271C101.631 49.737 101.968 49.2742 101.968 48.7386C101.959 48.6241 101.938 48.5108 101.906 48.4004L96.0956 29.5988ZM90.6577 42.2701L92.9257 34.0093L95.1936 42.2701H90.6577ZM116.357 28.7935C116.614 29.2344 116.743 29.7373 116.73 30.2464C116.73 30.8455 116.6 31.3493 116.342 31.758C116.083 32.1666 115.727 32.3725 115.274 32.3758H110.986V49.2246C110.986 49.7007 110.747 50.068 110.271 50.3265C109.738 50.5818 109.153 50.7143 108.562 50.7143C107.97 50.7143 107.386 50.5818 106.853 50.3265C106.375 50.0686 106.138 49.7007 106.138 49.2246V32.3758H101.85C101.392 32.3758 101.035 32.1712 100.777 31.7619C100.519 31.3526 100.389 30.8488 100.389 30.2504C100.374 29.7404 100.501 29.2362 100.757 28.7935C100.864 28.6016 101.022 28.4427 101.214 28.3344C101.406 28.226 101.625 28.1725 101.846 28.1795H115.274C115.494 28.1736 115.711 28.2277 115.902 28.336C116.093 28.4442 116.25 28.6025 116.357 28.7935ZM130.465 41.0323C132.971 40.0676 134.225 37.9825 134.226 34.777C134.226 30.378 131.677 28.1789 126.581 28.1795H120.148C119.948 28.1733 119.749 28.2089 119.564 28.2839C119.379 28.3589 119.212 28.4717 119.074 28.6149C118.939 28.7486 118.833 28.9075 118.761 29.0824C118.689 29.2573 118.653 29.4446 118.655 29.6335V49.2345C118.655 49.7079 118.893 50.0716 119.37 50.3255C119.903 50.5788 120.487 50.7103 121.079 50.7103C121.67 50.7103 122.254 50.5788 122.788 50.3255C123.264 50.069 123.502 49.7053 123.502 49.2345V41.8069H125.553L129.811 50.0051C130.121 50.6002 130.638 50.8978 131.364 50.8978C132.089 50.8978 132.778 50.6303 133.431 50.0954C134.083 49.5618 134.41 48.9971 134.41 48.4014C134.418 48.2046 134.364 48.0101 134.254 47.846L130.465 41.0323ZM128.665 37.442C128.187 37.883 127.493 38.1038 126.583 38.1045H123.504V32.3758H126.581C127.492 32.3758 128.186 32.5967 128.663 33.0384C129.139 33.4801 129.376 34.214 129.374 35.2402C129.374 36.2703 129.137 37.0056 128.663 37.4459L128.665 37.442ZM141.654 29.6295V49.2345C141.654 49.7079 141.416 50.0716 140.94 50.3255C140.406 50.5788 139.822 50.7103 139.23 50.7103C138.638 50.7103 138.054 50.5788 137.521 50.3255C137.044 50.069 136.806 49.7053 136.807 49.2345V29.6335C136.807 29.1608 137.045 28.8007 137.521 28.5534C138.057 28.3094 138.64 28.1831 139.23 28.1831C139.82 28.1831 140.403 28.3094 140.94 28.5534C141.414 28.8014 141.652 29.1614 141.652 29.6335L141.654 29.6295ZM149.61 35.4534V43.6219C149.61 45.6769 150.552 46.7041 152.437 46.7034C153.017 46.7034 153.498 46.6122 153.882 46.4267C154.252 46.2542 154.545 45.9523 154.705 45.5787C154.844 45.2765 154.953 44.9616 155.032 44.6385C155.095 44.3022 155.142 43.9629 155.172 43.6219C155.254 42.6559 156.051 42.1725 157.565 42.1719C158.455 42.1719 159.086 42.3316 159.46 42.6509C159.833 42.9703 160.02 43.571 160.02 44.453C160.02 46.4466 159.289 48.0182 157.829 49.1681C156.368 50.3179 154.498 50.8938 152.219 50.8958C150.001 50.8958 148.204 50.31 146.828 49.1383C145.451 47.9667 144.762 46.1279 144.762 43.6219V35.4574C144.762 32.9514 145.45 31.1126 146.828 29.941C148.205 28.7693 150.002 28.1835 152.219 28.1835C154.497 28.1835 156.367 28.7283 157.829 29.818C159.29 30.9076 160.02 32.4076 160.02 34.3178C160.02 35.2012 159.833 35.8019 159.46 36.1199C159.086 36.4379 158.465 36.5973 157.596 36.598C156.042 36.598 155.234 36.1153 155.172 35.1499C155.108 33.2986 154.186 32.3729 152.406 32.3729C150.54 32.3749 149.607 33.403 149.608 35.4574L149.61 35.4534ZM178.044 29.6295V43.6259C178.044 46.1318 177.329 47.9706 175.899 49.1423C174.469 50.3139 172.573 50.8998 170.213 50.8998C167.83 50.8998 165.93 50.3139 164.513 49.1423C163.095 47.9706 162.386 46.1318 162.385 43.6259V29.6335C162.385 29.1604 162.618 28.8014 163.085 28.5534C163.552 28.3055 164.125 28.1835 164.809 28.1835C165.4 28.1679 165.987 28.2948 166.519 28.5534C166.995 28.8014 167.233 29.1614 167.233 29.6335V43.6259C167.233 45.6809 168.227 46.7081 170.217 46.7074C172.206 46.7067 173.2 45.6796 173.2 43.6259V29.6335C173.2 29.1604 173.433 28.8014 173.9 28.5534C174.367 28.3055 174.941 28.1835 175.625 28.1835C176.216 28.1681 176.802 28.295 177.334 28.5534C177.805 28.8014 178.041 29.1614 178.042 29.6335L178.044 29.6295ZM200.074 30.5886V49.2345C200.074 49.7079 199.835 50.0716 199.359 50.3255C198.825 50.5788 198.241 50.7103 197.65 50.7103C197.058 50.7103 196.474 50.5788 195.941 50.3255C195.464 50.069 195.226 49.7053 195.226 49.2345V37.677L192.243 42.7352C191.889 43.3303 191.351 43.6279 190.627 43.6279C189.921 43.6279 189.414 43.3303 189.104 42.7352L186.151 37.3726V49.2345C186.151 49.7079 185.913 50.0716 185.437 50.3255C184.903 50.5788 184.319 50.7103 183.728 50.7103C183.136 50.7103 182.552 50.5788 182.019 50.3255C181.542 50.069 181.304 49.7053 181.304 49.2345V30.5886C181.304 29.7674 181.537 29.1611 182.004 28.7697C182.47 28.3782 183.045 28.1828 183.729 28.1835C184.662 28.1835 185.371 28.3223 185.857 28.6001C186.342 28.8778 186.886 29.5406 187.489 30.5886L190.689 36.1368L193.889 30.5886C194.489 29.54 195.032 28.8787 195.52 28.605C196.007 28.3313 196.717 28.1924 197.649 28.1885C198.331 28.1885 198.906 28.3838 199.373 28.7746C199.839 29.1654 200.073 29.7701 200.074 30.5886Z" fill="#293642"/>
</g>
<defs>
<clipPath id="clip0_1190_1201">
<rect width="200" height="23" fill="white" transform="translate(0 28)"/>
</clipPath>
</defs>
</svg>
